<?xml version="1.0" encoding="iso-8859-1"?>
<!-- Generator: Adobe Illustrator 19.0.0, SVG Export Plug-In . SVG Version: 6.00 Build 0)  -->
<svg version="1.1" id="Layer_1" xmlns="http://www.w3.org/2000/svg" xmlns:xlink="http://www.w3.org/1999/xlink" x="0px" y="0px"
	 viewBox="0 0 512 512" style="enable-background:new 0 0 512 512;" xml:space="preserve">
<g>
	<g>
		<path fill="#13395C" stroke="#13395C" d="M488.49,493.714V384h-62.694V91.429v-7.837V2.612H242.939v73.143H86.204V384H23.51v109.714H0v15.673h512v-15.673H488.49z
			 M86.204,493.714h-47.02v-94.041h47.02V493.714z M284.735,493.714h-57.469v-47.02h20.898v23.51h15.673v-23.51h20.898V493.714z
			 M410.122,493.714H300.408v-47.02h18.286V431.02H193.306v15.673h18.286v47.02H101.878v-83.592h308.245V493.714z M133.224,394.449
			v-47.02h47.02v47.02H133.224z M232.49,394.449v-47.02h47.02v47.02H232.49z M331.755,394.449v-47.02h47.02v47.02H331.755z
			 M410.122,394.449h-15.673v-62.694h-78.367v62.694h-20.898v-62.694h-78.367v62.694h-20.898v-62.694h-78.367v62.694h-15.673
			v-78.367h308.245V394.449z M410.122,300.408H101.878v-15.673h308.245V300.408z M133.224,269.061v-47.02h47.02v47.02H133.224z
			 M232.49,269.061v-47.02h47.02v47.02H232.49z M331.755,269.061v-47.02h47.02v47.02H331.755z M410.122,269.061h-15.673v-62.694
			h-78.367v62.694h-20.898v-62.694h-78.367v62.694h-20.898v-62.694h-78.367v62.694h-15.673v-83.592h308.245V269.061z
			 M133.224,169.796v-47.02h47.02v47.02H133.224z M232.49,169.796v-47.02h47.02v47.02H232.49z M331.755,169.796v-47.02h47.02v47.02
			H331.755z M410.122,169.796h-15.673v-62.694h-78.367v62.694h-20.898v-62.694h-78.367v62.694h-20.898v-62.694h-78.367v62.694
			h-15.673V91.429h308.245V169.796z M410.122,75.755h-151.51V18.286h151.51V75.755z M472.816,493.714h-47.02v-94.041h47.02V493.714z
			"/>
	</g>
</g>
<g>
	<g>
		<rect fill="#13395C" stroke="#13395C" x="276.898" y="39.184" width="20.898" height="15.673"/>
	</g>
</g>
<g>
	<g>
		<rect fill="#13395C" stroke="#13395C" x="308.245" y="39.184" width="20.898" height="15.673"/>
	</g>
</g>
<g>
	<g>
		<rect fill="#13395C" stroke="#13395C" x="339.592" y="39.184" width="20.898" height="15.673"/>
	</g>
</g>
<g>
	<g>
		<rect fill="#13395C" stroke="#13395C" x="370.939" y="39.184" width="20.898" height="15.673"/>
	</g>
</g>
<g>
	<g>
		<path fill="#13395C" stroke="#13395C" d="M117.551,425.796v52.245h57.469v-52.245H117.551z M159.347,462.367h-26.122v-20.898h26.122V462.367z"/>
	</g>
</g>
<g>
	<g>
		<path fill="#13395C" stroke="#13395C" d="M336.98,425.796v52.245h57.469v-52.245H336.98z M378.776,462.367h-26.122v-20.898h26.122V462.367z"/>
	</g>
</g>
<g>
</g>
<g>
</g>
<g>
</g>
<g>
</g>
<g>
</g>
<g>
</g>
<g>
</g>
<g>
</g>
<g>
</g>
<g>
</g>
<g>
</g>
<g>
</g>
<g>
</g>
<g>
</g>
<g>
</g>
</svg>
