<svg width="20" height="20" viewBox="0 0 20 20" fill="none" xmlns="http://www.w3.org/2000/svg">
    <path d="M14.5006 0H2.16644V20H17.8336V3.33292L14.5006 0Z" fill="#E8E8E8" />
    <path
        d="M15.173 9.8906C14.9326 9.46228 14.1023 9.32771 13.7213 9.26716C13.421 9.2194 13.1145 9.20515 12.8108 9.20542C12.5723 9.20383 12.3374 9.21557 12.1054 9.22877C12.0199 9.23451 11.9353 9.24189 11.8507 9.24922C11.7641 9.1595 11.6803 9.06682 11.5992 8.97203C11.0834 8.36138 10.6669 7.66888 10.3275 6.94926C10.4176 6.60156 10.4897 6.23868 10.5332 5.86182C10.6127 5.174 10.64 4.39013 10.3823 3.73436C10.2933 3.50803 10.056 3.2325 9.78225 3.3697C9.46753 3.52749 9.379 3.97454 9.35334 4.29144C9.3327 4.54759 9.34714 4.80439 9.39015 5.05625C9.43395 5.30982 9.50447 5.55059 9.58125 5.79104C9.65289 6.01149 9.73185 6.23024 9.81794 6.44693C9.76332 6.61752 9.70534 6.78514 9.64445 6.94847C9.50249 7.32071 9.34899 7.67435 9.20136 8.01454C9.12352 8.18321 9.04733 8.34832 8.97279 8.50974C8.7369 9.0279 8.48082 9.53656 8.1934 10.0283C7.523 10.2648 6.92139 10.5389 6.42177 10.8611C6.15375 11.0342 5.917 11.2223 5.71983 11.4286C5.53367 11.6233 5.34448 11.876 5.32792 12.1558C5.31862 12.3137 5.38116 12.467 5.51052 12.5606C5.68843 12.6935 5.92419 12.6847 6.13059 12.6414C6.80674 12.4996 7.32596 11.9184 7.76812 11.4285C8.07269 11.0911 8.41934 10.6627 8.78195 10.1445C8.78274 10.1433 8.78353 10.1421 8.78439 10.1409C9.40631 9.94812 10.0832 9.78532 10.8016 9.66566C11.1297 9.61123 11.4666 9.56671 11.8102 9.53544C12.0519 9.76177 12.313 9.96784 12.5978 10.1399C12.8196 10.2764 13.0556 10.3917 13.3026 10.4776C13.5523 10.5592 13.8036 10.6259 14.063 10.668C14.194 10.6867 14.328 10.6952 14.4649 10.6901C14.7704 10.6786 15.2088 10.5614 15.2376 10.1907C15.2464 10.0773 15.222 9.97781 15.173 9.8906ZM7.85942 10.5707C7.71634 10.7923 7.57834 10.9917 7.44832 11.1671C7.12991 11.6004 6.76624 12.115 6.2397 12.3074C6.1397 12.3439 6.00803 12.3817 5.86924 12.3735C5.74562 12.3662 5.62371 12.3117 5.62932 12.1713C5.63209 12.0978 5.66804 12.0041 5.72319 11.912C5.78355 11.811 5.85829 11.7184 5.93923 11.6332C6.11265 11.451 6.33192 11.2744 6.58417 11.1109C6.97106 10.8599 7.43295 10.634 7.94781 10.4324C7.9182 10.4792 7.88864 10.5258 7.85942 10.5707ZM9.65514 5.01245C9.61542 4.78064 9.60942 4.54561 9.63383 4.31961C9.64597 4.20661 9.66899 4.09632 9.7023 3.99295C9.73053 3.90521 9.79149 3.69109 9.88872 3.66358C10.049 3.6182 10.0983 3.96234 10.1164 4.0597C10.2197 4.61355 10.1287 5.22947 10.0048 5.77276C9.98503 5.85918 9.96306 5.94421 9.94057 6.02891C9.90218 5.9233 9.86557 5.81736 9.83186 5.71089C9.7593 5.47836 9.69293 5.24313 9.65514 5.01245ZM10.7556 9.38464C10.1534 9.48227 9.58046 9.61018 9.04192 9.76118C9.10676 9.74303 9.40308 9.18147 9.46918 9.06491C9.7806 8.5164 10.0354 7.94072 10.2184 7.33681C10.5416 7.97608 10.9339 8.58765 11.4159 9.132C11.4603 9.1814 11.5054 9.23022 11.5513 9.27844C11.2813 9.30753 11.0155 9.34295 10.7556 9.38464ZM14.8286 10.156C14.8066 10.2751 14.5523 10.3432 14.4336 10.3619C14.0829 10.4171 13.712 10.3729 13.3763 10.2602C13.146 10.1829 12.9239 10.0776 12.7129 9.95096C12.5031 9.82424 12.3069 9.67516 12.1234 9.51077C12.3496 9.49718 12.5786 9.48827 12.8087 9.49263C13.0388 9.49494 13.2706 9.50655 13.4997 9.53643C13.9292 9.58432 14.4105 9.73175 14.7485 10.0105C14.8151 10.0654 14.8363 10.114 14.8286 10.156Z"
        fill="#FB3449" />
    <path d="M15.0164 1.66649H2.16644V0H14.5006L15.0164 1.66649Z" fill="#FB3449" />
    <path
        d="M8.36715 15.9078C8.36715 16.2614 8.26293 16.5345 8.05434 16.7271C7.84576 16.9198 7.54958 17.0161 7.16566 17.0161H6.92535V18.0661H6.0703V14.9011H7.16572C7.56547 14.9011 7.86568 14.9885 8.06628 15.1631C8.26688 15.3377 8.36715 15.5859 8.36715 15.9078ZM6.92541 16.3191H7.08129C7.20972 16.3191 7.31184 16.283 7.38763 16.2108C7.46343 16.1386 7.50129 16.039 7.50129 15.912C7.50129 15.6984 7.38295 15.5917 7.14626 15.5917H6.92541V16.3191Z"
        fill="#A4A9AD" />
    <path
        d="M11.5582 16.4165C11.5582 16.9447 11.4127 17.3517 11.1219 17.6374C10.8312 17.9232 10.4223 18.0661 9.89558 18.0661H8.87159V14.9011H9.96702C10.475 14.9011 10.8672 15.031 11.1436 15.2908C11.4199 15.5506 11.5582 15.9258 11.5582 16.4165ZM10.6706 16.4468C10.6706 16.1567 10.6132 15.9417 10.4985 15.8017C10.3838 15.6617 10.2095 15.5917 9.97566 15.5917H9.72677V17.3647H9.91728C10.1771 17.3647 10.3676 17.2893 10.4888 17.1384C10.61 16.9877 10.6706 16.7571 10.6706 16.4468Z"
        fill="#A4A9AD" />
    <path d="M12.9675 18.0661H12.1253V14.9011H13.9958V15.5874H12.9675V16.1913H13.9157V16.8776H12.9675V18.0661Z"
        fill="#A4A9AD" />
    <path d="M14.5006 3.33292H17.8336L14.5006 0V3.33292Z" fill="#D1D3D3" />
</svg>