<svg width="34" height="34" viewBox="0 0 34 34" fill="none" xmlns="http://www.w3.org/2000/svg">
    <path
        d="M17 18.0269C20.4503 18.0269 23.2449 15.2116 23.2449 11.7357C23.2449 8.25986 20.4503 5.44458 17 5.44458C13.5497 5.44458 10.7551 8.25986 10.7551 11.7357C10.7551 15.2116 13.5497 18.0269 17 18.0269Z"
        fill="white" />
    <path
        d="M12.0586 20.2626C12.4075 20.1768 12.7653 20.3523 12.9237 20.6769L15.7436 22.7587C17 22.7584 17 22.7588 18.2563 22.7585L21.0762 20.6769C21.2347 20.3523 21.5925 20.1768 21.9414 20.2626C25.6912 21.1841 29.4898 23.063 29.4898 25.8896V29.0352H4.51019V25.8896C4.51019 23.063 8.30882 21.1841 12.0586 20.2626Z"
        fill="white" />
</svg>