<svg width="20" height="20" viewBox="0 0 20 20" fill="none" xmlns="http://www.w3.org/2000/svg">
    <path
        d="M10 0C4.48615 0 0 4.48577 0 10C0 15.5142 4.48615 20 10 20C15.5138 20 20 15.5142 20 10C20 4.48577 15.5138 0 10 0ZM10.7692 15.7692C10.7692 16.1938 10.4246 16.5385 10 16.5385C9.57538 16.5385 9.23077 16.1938 9.23077 15.7692V15C9.23077 14.5754 9.57538 14.2308 10 14.2308C10.4246 14.2308 10.7692 14.5754 10.7692 15V15.7692ZM10.7692 12.6923C10.7692 13.1169 10.4246 13.4615 10 13.4615C9.57538 13.4615 9.23077 13.1169 9.23077 12.6923V4.23077C9.23077 3.80615 9.57538 3.46154 10 3.46154C10.4246 3.46154 10.7692 3.80615 10.7692 4.23077V12.6923Z"
        fill="#FBB016" />
</svg>